<?xml version="1.0" encoding="utf-8"?>
<!-- Generator: Adobe Illustrator 23.0.3, SVG Export Plug-In . SVG Version: 6.00 Build 0)  -->
<svg version="1.1" id="Layer_1" xmlns="http://www.w3.org/2000/svg" xmlns:xlink="http://www.w3.org/1999/xlink" x="0px" y="0px"
	 viewBox="0 0 500 210" style="enable-background:new 0 0 500 210;" xml:space="preserve">
<style type="text/css">
	.st0{fill:url(#SVGID_1_);}
	.st1{fill:#FFFFFF;}
	.st2{fill:url(#SVGID_2_);}
	.st3{fill:url(#SVGID_3_);}
	.st4{fill:#0DB04A;}
</style>
<g>
	<g>
		<linearGradient id="SVGID_1_" gradientUnits="userSpaceOnUse" x1="81.34" y1="187.2678" x2="81.34" y2="22.7322">
			<stop  offset="0" style="stop-color:#09AF4C"/>
			<stop  offset="1" style="stop-color:#ABCF40"/>
		</linearGradient>
		<path class="st0" d="M135.626,113.481c-3.325-5.026-7.409-8.765-12.252-11.224c4.056-1.897,7.546-4.967,10.478-9.213
			c2.927-4.242,4.393-9.657,4.393-16.248c0-8.597-2.873-15.745-8.619-21.44c-5.744-5.695-14.195-8.543-25.348-8.543h-7.912V27.519
			c0-2.633-2.173-4.787-4.829-4.787h-0.402c-2.656,0-4.829,2.154-4.829,4.787v19.294H67.086V27.519c0-2.633-2.173-4.787-4.829-4.787
			h-0.403c-2.656,0-4.829,2.154-4.829,4.787v19.342H46.246c-2.656,0-4.829,2.154-4.829,4.787v0.399c0,2.633,2.173,4.787,4.829,4.787
			h10.207v22.263c-10.798,3.458-21.958,6.889-33.517,4.39c-0.282-0.063-0.578,0.056-0.743,0.294c-0.163,0.239-0.165,0.555,0,0.794
			c10.018,14.698,22.054,23.125,34.26,27.248v42.272H46.246c-2.656,0-4.829,2.154-4.829,4.787v0.399
			c0,2.633,2.173,4.787,4.829,4.787h10.779v18.415c0,2.633,2.173,4.787,4.829,4.787h0.403c2.656,0,4.829-2.154,4.829-4.787v-18.415
			h19.219v18.415c0,2.633,2.173,4.787,4.829,4.787h0.402c2.656,0,4.829-2.154,4.829-4.787v-18.415h9.095
			c7.322,0,13.631-1.533,18.928-4.606c5.293-3.07,9.32-7.145,12.082-12.228c2.76-5.081,4.14-10.524,4.14-16.331
			C140.61,124.313,138.947,118.505,135.626,113.481z M102.08,56.864c8.336,0,14.673,1.675,19.012,5.026
			c4.336,3.349,6.506,8.319,6.506,14.907c0,6.701-2.17,11.867-6.506,15.494c-2.304,1.928-5.179,3.339-8.611,4.242
			c-12.819-6.168-25.721-8.843-39.001-8.092c12.109-3.068,25.086-4.944,37.475,0.499c0.308,0.135,0.673,0.038,0.87-0.234
			c0.198-0.272,0.175-0.644-0.053-0.892c-15.355-16.584-30.22-15.834-44.673-11.954V56.864H102.08z M123.035,147.568
			c-4.62,4.299-11.042,6.449-19.265,6.449H67.099v-39.642c14.727,2.161,28.913-1.169,39.268-6.51
			c6.988,0.409,12.547,2.502,16.669,6.286c4.619,4.245,6.929,9.827,6.929,16.75C129.964,137.713,127.654,143.27,123.035,147.568z"/>
	</g>
	<path class="st1" d="M81.35,32.417"/>
	<linearGradient id="SVGID_2_" gradientUnits="userSpaceOnUse" x1="61.7656" y1="127.051" x2="61.7656" y2="111.8159">
		<stop  offset="0" style="stop-color:#09AF4C;stop-opacity:0"/>
		<stop  offset="1" style="stop-color:#086936"/>
	</linearGradient>
	<path class="st2" d="M56.457,111.816c0,0,4.502,1.673,10.638,2.548v12.687c-6.136-0.875-10.66-2.566-10.66-2.566L56.457,111.816z"
		/>
	<linearGradient id="SVGID_3_" gradientUnits="userSpaceOnUse" x1="121.775" y1="113.9319" x2="116.6989" y2="103.0463">
		<stop  offset="0" style="stop-color:#09AF4C;stop-opacity:0"/>
		<stop  offset="1" style="stop-color:#017A3E"/>
	</linearGradient>
	<path class="st3" d="M106.367,107.864c9.567-1.333,17.007-5.607,17.007-5.607c5.309,2.633,8.619,6.611,8.619,6.611
		s-4.521,3.131-10.333,4.107c0,0-5.053-4.464-14.667-5.065L106.367,107.864z"/>
</g>
<g>
	<path class="st4" d="M212.95,108.698c-0.771-1.209-1.665-2.255-2.682-3.136c-1.019-0.879-2.077-1.595-3.177-2.145
		c0.825-0.384,1.663-0.921,2.517-1.609c0.852-0.687,1.636-1.554,2.352-2.599c0.714-1.044,1.292-2.255,1.733-3.631
		c0.44-1.374,0.66-2.942,0.66-4.704c0-1.98-0.317-3.85-0.949-5.611c-0.633-1.76-1.637-3.328-3.012-4.704
		c-1.376-1.374-3.109-2.461-5.199-3.259c-2.091-0.797-4.567-1.196-7.427-1.196h-21.537c-1.211,0-1.815,0.633-1.815,1.898v54.05
		c0,1.211,0.605,1.815,1.815,1.815h22.115c2.806,0,5.281-0.454,7.427-1.361c2.145-0.908,3.933-2.131,5.364-3.672
		c1.43-1.539,2.517-3.286,3.259-5.24c0.743-1.952,1.114-3.974,1.114-6.065c0-1.705-0.235-3.301-0.701-4.786
		C214.339,111.257,213.72,109.909,212.95,108.698z M179.613,81.054h17.081c8.306,0,12.46,3.274,12.46,9.82
		c0,3.301-1.046,5.846-3.136,7.633c-2.091,1.788-5.199,2.682-9.325,2.682h-17.081V81.054z M207.009,125.697
		c-2.201,2.145-5.364,3.218-9.49,3.218h-17.907V106.14h17.907c4.126,0,7.289,1.06,9.49,3.177c2.2,2.118,3.301,4.856,3.301,8.211
		C210.31,120.829,209.208,123.552,207.009,125.697z"/>
	<path class="st4" d="M228.884,75.278h-3.136c-0.551,0-0.99,0.179-1.32,0.536c-0.33,0.359-0.495,0.812-0.495,1.362v3.136
		c0,1.211,0.605,1.815,1.815,1.815h3.136c0.549,0,1.003-0.165,1.362-0.495c0.357-0.33,0.536-0.77,0.536-1.32v-3.136
		c0-0.549-0.179-1.003-0.536-1.362C229.888,75.457,229.434,75.278,228.884,75.278z"/>
	<path class="st4" d="M228.059,90.957h-1.403c-1.211,0-1.815,0.606-1.815,1.815v39.279c0,1.211,0.605,1.815,1.815,1.815h1.403
		c1.209,0,1.815-0.605,1.815-1.815V92.772C229.875,91.563,229.269,90.957,228.059,90.957z"/>
	<path class="st4" d="M261.272,129.08h-4.456c-2.476,0-4.196-0.811-5.157-2.434c-0.963-1.622-1.444-3.92-1.444-6.89V95.743h10.232
		c1.209,0,1.815-0.605,1.815-1.815v-1.155c0-1.209-0.606-1.815-1.815-1.815h-10.232V77.094c0-1.209-0.606-1.815-1.815-1.815h-1.403
		c-1.211,0-1.815,0.606-1.815,1.815v13.863h-6.436c-1.211,0-1.815,0.606-1.815,1.815v1.155c0,1.211,0.605,1.815,1.815,1.815h6.436
		v24.343c0,1.926,0.178,3.728,0.536,5.405c0.357,1.679,0.962,3.136,1.815,4.373c0.852,1.238,2.008,2.215,3.466,2.929
		c1.457,0.716,3.259,1.073,5.405,1.073h4.869c1.209,0,1.815-0.605,1.815-1.815v-1.155
		C263.088,129.686,262.482,129.08,261.272,129.08z"/>
	<path class="st4" d="M314.678,103.252h-17.659c-1.211,0-1.815,0.633-1.815,1.898v1.155c0,1.266,0.605,1.898,1.815,1.898h14.358
		v4.208c0,2.971-0.441,5.557-1.32,7.757c-0.881,2.201-2.077,4.002-3.59,5.405c-1.514,1.403-3.315,2.449-5.405,3.136
		c-2.091,0.689-4.346,1.031-6.767,1.031c-2.476,0-4.718-0.316-6.725-0.949c-2.009-0.632-3.742-1.65-5.199-3.053
		c-1.458-1.403-2.614-3.204-3.466-5.405c-0.854-2.2-1.335-4.84-1.444-7.922c-0.165-4.951-0.165-9.902,0-14.854
		c0.11-3.08,0.591-5.721,1.444-7.922c0.852-2.2,2.008-4.002,3.466-5.405c1.457-1.403,3.19-2.42,5.199-3.053
		c2.008-0.632,4.25-0.949,6.725-0.949s4.621,0.303,6.436,0.908c1.815,0.606,3.383,1.39,4.704,2.352
		c1.32,0.963,2.379,2.063,3.177,3.301c0.797,1.238,1.416,2.49,1.857,3.755c0.219,0.606,0.44,1.031,0.66,1.279
		c0.219,0.248,0.578,0.371,1.073,0.371h1.815c0.549,0,0.99-0.151,1.32-0.454c0.33-0.302,0.467-0.701,0.413-1.196
		c-0.056-1.155-0.495-2.612-1.32-4.373c-0.825-1.76-2.091-3.437-3.796-5.034c-1.706-1.595-3.907-2.971-6.602-4.126
		c-2.696-1.155-5.941-1.733-9.737-1.733c-3.521,0-6.63,0.536-9.325,1.609c-2.696,1.073-4.965,2.572-6.808,4.497
		c-1.844,1.926-3.26,4.223-4.25,6.89c-0.99,2.669-1.541,5.625-1.65,8.871c-0.111,2.475-0.165,5.089-0.165,7.839
		c0,2.752,0.054,5.364,0.165,7.839c0.11,3.247,0.646,6.203,1.609,8.871c0.962,2.669,2.365,4.965,4.208,6.89
		c1.843,1.926,4.112,3.424,6.808,4.497c2.695,1.073,5.83,1.609,9.407,1.609c3.52,0,6.67-0.536,9.448-1.609
		c2.777-1.073,5.116-2.599,7.014-4.58c1.898-1.98,3.342-4.332,4.332-7.055c0.99-2.723,1.485-5.735,1.485-9.036v-7.262
		C316.576,103.885,315.943,103.252,314.678,103.252z"/>
	<path class="st4" d="M345.473,90.957h-3.053c-5.502,0-9.242,1.898-11.222,5.694v-3.796c0-0.549-0.179-1.003-0.536-1.362
		c-0.359-0.357-0.812-0.536-1.362-0.536h-1.32c-0.551,0-0.99,0.179-1.32,0.536c-0.33,0.358-0.495,0.812-0.495,1.362v39.196
		c0,1.211,0.605,1.815,1.815,1.815h1.32c0.549,0,1.003-0.165,1.362-0.495c0.357-0.33,0.536-0.77,0.536-1.32V106.47
		c0-3.301,0.962-5.913,2.888-7.839c1.925-1.925,4.538-2.888,7.839-2.888h3.548c1.209,0,1.815-0.605,1.815-1.815v-1.155
		C347.288,91.563,346.682,90.957,345.473,90.957z"/>
	<path class="st4" d="M368.668,90.131c-2.696,0-5.116,0.468-7.262,1.403c-2.145,0.936-3.975,2.228-5.487,3.878
		c-1.514,1.65-2.723,3.645-3.631,5.983c-0.908,2.339-1.473,4.91-1.692,7.715c-0.055,0.825-0.082,1.926-0.082,3.301
		c0,1.376,0.027,2.475,0.082,3.301c0.219,2.806,0.784,5.378,1.692,7.715c0.908,2.339,2.131,4.346,3.672,6.024
		c1.54,1.679,3.383,2.971,5.529,3.878c2.145,0.908,4.538,1.362,7.179,1.362c2.585,0,4.923-0.371,7.014-1.114
		c2.09-0.743,3.864-1.636,5.322-2.682c1.457-1.044,2.585-2.145,3.383-3.301c0.797-1.155,1.224-2.117,1.279-2.888
		c0.054-0.495-0.097-0.893-0.454-1.196c-0.359-0.302-0.784-0.454-1.279-0.454h-1.32c-0.606,0-1.046,0.07-1.32,0.206
		c-0.276,0.138-0.66,0.565-1.155,1.279c-0.221,0.33-0.619,0.798-1.197,1.403c-0.578,0.606-1.335,1.196-2.269,1.774
		c-0.936,0.578-2.063,1.087-3.383,1.527c-1.32,0.441-2.861,0.66-4.621,0.66c-1.98,0-3.769-0.413-5.364-1.238
		c-1.596-0.825-2.944-1.911-4.043-3.259c-1.101-1.347-1.968-2.901-2.599-4.662c-0.633-1.76-0.977-3.575-1.031-5.446v-0.825h29.377
		c0.549,0,1.003-0.165,1.361-0.495c0.357-0.33,0.536-0.77,0.536-1.32v-1.238c0-6.656-1.596-11.869-4.786-15.637
		C378.928,92.016,374.445,90.131,368.668,90.131z M381.871,109.853H355.63v-0.33c0-2.035,0.289-3.947,0.866-5.735
		c0.578-1.787,1.43-3.342,2.558-4.662c1.127-1.32,2.488-2.352,4.085-3.094c1.595-0.743,3.437-1.114,5.529-1.114
		c2.035,0,3.878,0.371,5.529,1.114c1.65,0.743,3.039,1.774,4.167,3.094c1.127,1.32,1.993,2.875,2.599,4.662
		c0.605,1.788,0.908,3.701,0.908,5.735V109.853z"/>
	<path class="st4" d="M412.303,90.131c-2.696,0-5.116,0.468-7.262,1.403c-2.145,0.936-3.975,2.228-5.487,3.878
		c-1.514,1.65-2.723,3.645-3.631,5.983c-0.908,2.339-1.473,4.91-1.692,7.715c-0.055,0.825-0.083,1.926-0.083,3.301
		c0,1.376,0.027,2.475,0.083,3.301c0.219,2.806,0.784,5.378,1.692,7.715c0.908,2.339,2.131,4.346,3.672,6.024
		c1.54,1.679,3.383,2.971,5.529,3.878c2.145,0.908,4.538,1.362,7.179,1.362c2.585,0,4.923-0.371,7.014-1.114
		c2.09-0.743,3.864-1.636,5.322-2.682c1.457-1.044,2.585-2.145,3.383-3.301c0.797-1.155,1.224-2.117,1.279-2.888
		c0.054-0.495-0.097-0.893-0.454-1.196c-0.359-0.302-0.784-0.454-1.279-0.454h-1.32c-0.606,0-1.046,0.07-1.32,0.206
		c-0.276,0.138-0.66,0.565-1.155,1.279c-0.221,0.33-0.619,0.798-1.197,1.403c-0.578,0.606-1.335,1.196-2.269,1.774
		c-0.936,0.578-2.063,1.087-3.383,1.527c-1.32,0.441-2.861,0.66-4.621,0.66c-1.98,0-3.769-0.413-5.364-1.238
		c-1.596-0.825-2.944-1.911-4.043-3.259c-1.101-1.347-1.968-2.901-2.599-4.662c-0.633-1.76-0.977-3.575-1.031-5.446v-0.825h29.377
		c0.549,0,1.003-0.165,1.362-0.495c0.357-0.33,0.536-0.77,0.536-1.32v-1.238c0-6.656-1.596-11.869-4.786-15.637
		C422.563,92.016,418.08,90.131,412.303,90.131z M425.506,109.853h-26.241v-0.33c0-2.035,0.289-3.947,0.866-5.735
		c0.578-1.787,1.43-3.342,2.558-4.662c1.127-1.32,2.488-2.352,4.085-3.094c1.595-0.743,3.437-1.114,5.529-1.114
		c2.035,0,3.878,0.371,5.529,1.114c1.65,0.743,3.039,1.774,4.167,3.094c1.127,1.32,1.993,2.875,2.599,4.662
		c0.605,1.788,0.908,3.701,0.908,5.735V109.853z"/>
	<path class="st4" d="M473.927,101.271c-0.716-2.255-1.774-4.208-3.177-5.859c-1.403-1.65-3.15-2.942-5.24-3.878
		c-2.091-0.935-4.538-1.403-7.344-1.403c-3.577,0-6.409,0.606-8.499,1.815c-2.091,1.211-3.878,2.779-5.364,4.704v-3.878
		c0-1.209-0.606-1.815-1.815-1.815h-1.403c-1.211,0-1.815,0.606-1.815,1.815v39.279c0,1.211,0.605,1.815,1.815,1.815h1.403
		c1.209,0,1.815-0.605,1.815-1.815v-23.023c0-4.456,1.182-7.922,3.548-10.397c2.365-2.476,5.529-3.713,9.49-3.713
		c4.126,0,7.262,1.252,9.407,3.755c2.145,2.504,3.218,5.956,3.218,10.356v23.023c0,1.211,0.605,1.815,1.815,1.815h1.403
		c1.209,0,1.815-0.605,1.815-1.815v-23.435C475,105.975,474.641,103.528,473.927,101.271z"/>
</g>
</svg>
